<?xml version="1.0" standalone="no"?>
<!DOCTYPE svg PUBLIC "-//W3C//DTD SVG 20010904//EN"
 "http://www.w3.org/TR/2001/REC-SVG-20010904/DTD/svg10.dtd">
<svg version="1.0" xmlns="http://www.w3.org/2000/svg"
 width="700.000000pt" height="700.000000pt" viewBox="0 0 700.000000 700.000000"
 preserveAspectRatio="xMidYMid meet">
<metadata>
Created by potrace 1.14, written by Peter Selinger 2001-2017
</metadata>
<g transform="translate(0.000000,700.000000) scale(0.100000,-0.100000)"
fill="#000000" stroke="none">
<path d="M1953 6372 c-15 -9 -192 -139 -393 -289 -254 -191 -372 -285 -387
-311 l-23 -37 0 -1179 c0 -1179 0 -1179 21 -1223 14 -30 35 -52 66 -70 l45
-26 918 0 c885 0 919 0 950 19 18 10 47 36 64 57 l31 39 5 451 5 451 1500 1
c1177 1 1506 4 1530 14 42 17 93 69 105 105 6 19 9 182 7 422 l-2 391 -27 35
c-15 20 -49 46 -75 59 l-47 23 -1498 0 -1498 0 -1 460 c0 254 -2 471 -5 484
-10 58 -47 102 -104 126 -53 21 -1145 19 -1187 -2z"/>
<path d="M218 2748 c-75 -44 -72 -2 -72 -853 0 -739 0 -762 19 -794 11 -19 33
-43 48 -55 l28 -21 2512 -3 c2791 -3 2567 -8 2617 65 25 36 25 37 25 274 0
217 3 253 23 255 16 1 128 16 147 20 151 29 326 74 400 104 17 6 37 13 45 15
38 8 239 103 315 149 153 93 235 160 345 282 34 37 130 189 130 205 0 4 5 20
12 36 29 73 49 202 37 247 -10 36 -44 63 -103 81 -44 13 -423 15 -3270 15
l-3221 0 -37 -22z"/>
<path d="M1843 648 c-61 -127 -145 -238 -245 -325 l-37 -31 -139 -1 c-153 0
-190 -10 -226 -59 -12 -15 -21 -47 -23 -76 -5 -60 18 -105 69 -136 33 -20 54
-20 1526 -20 1612 0 1519 -3 1568 52 46 50 49 125 8 182 -35 47 -70 56 -224
57 l-141 1 -66 62 c-85 79 -159 178 -213 289 l-43 87 -887 0 -888 0 -39 -82z"/>
</g>
</svg>
