<?xml version="1.0" standalone="no"?>
<!DOCTYPE svg PUBLIC "-//W3C//DTD SVG 20010904//EN"
 "http://www.w3.org/TR/2001/REC-SVG-20010904/DTD/svg10.dtd">
<svg version="1.0" xmlns="http://www.w3.org/2000/svg"
 width="700.000000pt" height="700.000000pt" viewBox="0 0 700.000000 700.000000"
 preserveAspectRatio="xMidYMid meet">
<metadata>
Created by potrace 1.14, written by Peter Selinger 2001-2017
</metadata>
<g transform="translate(0.000000,700.000000) scale(0.100000,-0.100000)"
fill="#000000" stroke="none">
<path d="M1550 6989 c-233 -36 -384 -81 -555 -164 -540 -261 -914 -782 -983
-1370 -9 -77 -9 -3818 0 -3905 4 -36 11 -85 17 -110 5 -25 12 -56 14 -70 45
-244 194 -538 387 -764 210 -246 528 -449 835 -535 146 -40 159 -43 310 -61
81 -10 3858 -8 3895 2 14 4 41 9 60 12 246 39 475 130 690 274 360 241 616
602 725 1022 20 76 21 83 31 147 3 26 9 57 13 68 3 11 7 882 8 1935 2 1952 2
1941 -31 2126 -11 62 -60 222 -92 300 -163 406 -471 736 -868 929 -98 48 -284
115 -356 129 -56 11 -141 27 -172 33 -49 10 -3864 12 -3928 2z"/>
</g>
</svg>
