<?xml version="1.0" standalone="no"?>
<!DOCTYPE svg PUBLIC "-//W3C//DTD SVG 20010904//EN"
 "http://www.w3.org/TR/2001/REC-SVG-20010904/DTD/svg10.dtd">
<svg version="1.0" xmlns="http://www.w3.org/2000/svg"
 width="700.000000pt" height="700.000000pt" viewBox="0 0 700.000000 700.000000"
 preserveAspectRatio="xMidYMid meet">
<metadata>
Created by potrace 1.14, written by Peter Selinger 2001-2017
</metadata>
<g transform="translate(0.000000,700.000000) scale(0.100000,-0.100000)"
fill="#000000" stroke="none">
<path d="M0 3500 l0 -3500 3500 0 3500 0 0 3500 0 3500 -3500 0 -3500 0 0
-3500z m3699 409 c348 -120 684 -707 817 -1424 15 -78 19 -147 18 -310 0 -194
-2 -217 -26 -306 -46 -170 -129 -338 -222 -453 l-38 -46 -332 1 c-182 0 -324
3 -316 6 41 15 78 65 91 121 19 84 -56 379 -120 477 l-20 29 -35 -74 c-63
-134 -113 -345 -101 -425 7 -49 33 -91 71 -116 29 -19 26 -19 -298 -19 l-328
0 -45 58 c-148 187 -234 425 -251 692 -7 130 10 494 31 637 31 203 85 326 173
387 34 24 56 31 107 34 77 5 128 -16 204 -84 27 -24 52 -44 55 -44 3 0 6 17 6
38 0 74 31 299 55 399 91 377 249 510 504 422z"/>
<path d="M3535 3600 c-9 -10 -27 -49 -40 -87 -49 -140 -72 -315 -81 -593 -6
-181 -19 -258 -53 -297 -31 -37 -84 -63 -127 -63 -61 0 -119 43 -225 169 -51
61 -97 111 -100 111 -8 0 -25 -71 -40 -165 -5 -38 -13 -191 -16 -340 -5 -250
-4 -276 16 -357 27 -114 59 -191 113 -275 47 -71 124 -163 138 -163 4 0 11 28
14 63 20 174 94 417 164 536 166 278 389 253 542 -63 67 -138 108 -287 135
-490 l7 -48 30 28 c95 91 183 250 220 400 50 204 15 500 -98 849 -144 440
-365 762 -545 795 -30 6 -42 3 -54 -10z"/>
</g>
</svg>
