<?xml version="1.0" standalone="no"?>
<!DOCTYPE svg PUBLIC "-//W3C//DTD SVG 20010904//EN"
 "http://www.w3.org/TR/2001/REC-SVG-20010904/DTD/svg10.dtd">
<svg version="1.0" xmlns="http://www.w3.org/2000/svg"
 width="700.000000pt" height="700.000000pt" viewBox="0 0 700.000000 700.000000"
 preserveAspectRatio="xMidYMid meet">
<metadata>
Created by potrace 1.14, written by Peter Selinger 2001-2017
</metadata>
<g transform="translate(0.000000,700.000000) scale(0.100000,-0.100000)"
fill="#000000" stroke="none">
<path d="M0 3500 l0 -3500 3500 0 3500 0 0 3500 0 3500 -3500 0 -3500 0 0
-3500z m2975 2569 c267 -138 566 -387 769 -639 216 -270 394 -603 489 -918
l34 -113 47 52 c133 148 215 361 234 607 8 105 11 115 37 142 63 66 155 60
221 -13 66 -71 168 -206 247 -327 499 -765 732 -1669 611 -2376 -76 -445 -273
-817 -601 -1135 -215 -208 -482 -368 -783 -469 -118 -40 -142 -44 -445 -76
l-320 -35 -400 32 c-245 20 -406 37 -415 44 -8 7 -75 31 -149 55 -163 52 -372
156 -500 247 -130 94 -317 276 -411 401 -138 184 -239 410 -292 652 -20 93
-22 133 -23 355 0 217 3 265 22 366 63 329 193 653 367 917 35 53 137 201 228
327 399 560 524 765 626 1027 93 238 130 413 141 663 8 187 18 215 84 246 53
25 81 20 182 -32z"/>
</g>
</svg>
